<?xml version="1.0" encoding="utf-8"?>
<!-- Generator: Adobe Illustrator 15.1.0, SVG Export Plug-In  -->
<!DOCTYPE svg PUBLIC "-//W3C//DTD SVG 1.1//EN" "http://www.w3.org/Graphics/SVG/1.1/DTD/svg11.dtd" [
	<!ENTITY ns_flows "http://ns.adobe.com/Flows/1.0/">
]>
<svg version="1.1"
	 xmlns="http://www.w3.org/2000/svg" xmlns:xlink="http://www.w3.org/1999/xlink" xmlns:a="http://ns.adobe.com/AdobeSVGViewerExtensions/3.0/"
	 x="0px" y="0px" viewBox="-5.4 -6.789 1084 640"
	 overflow="visible" enable-background="new -5.4 -6.789 1084 640" xml:space="preserve">
<defs>
</defs>
<path fill="#FFFFFF" d="M607.25,310.062V192.785h30.172c40.574,0,65.016,22.941,65.016,58.637c0,35.699-24.441,58.641-65.016,58.641
	H607.25z M590.039,325.785h49.293c47.805,0,80.734-30.164,80.734-74.363c0-44.191-32.93-74.355-80.734-74.355h-49.293V325.785z"/>
<path fill="#FFFFFF" d="M607.07,177.035V59.758h30.176c40.574,0,65.008,22.941,65.008,58.637c0,35.699-24.434,58.641-65.008,58.641
	H607.07z M589.863,192.758h49.285c47.809,0,80.742-30.168,80.742-74.363c0-44.191-32.934-74.359-80.742-74.359h-49.285V192.758z"/>
<path fill="#FFFFFF" d="M463.066,310.062V192.785h-30.168c-40.582,0-65.016,22.941-65.016,58.637
	c0,35.699,24.434,58.641,65.016,58.641H463.066z M480.277,325.785h-49.293c-47.801,0-80.738-30.164-80.738-74.363
	c0-44.191,32.938-74.355,80.738-74.355h49.293V325.785z"/>
<path fill="#FFFFFF" d="M463.242,177.035V59.758h-30.168c-40.578,0-65.016,22.941-65.016,58.637
	c0,35.699,24.438,58.641,65.016,58.641H463.242z M480.453,192.758h-49.289c-47.805,0-80.738-30.168-80.738-74.363
	c0-44.191,32.934-74.359,80.738-74.359h49.289V192.758z"/>
<path fill="#FFFFFF" d="M660.312,112.816H543.031V82.652c0-40.582,22.945-65.02,58.637-65.02c35.695,0,58.645,24.438,58.645,65.02
	V112.816z M676.035,130.031V80.738C676.035,32.934,645.867,0,601.668,0c-44.188,0-74.355,32.934-74.355,80.738v49.293H676.035z"/>
<path fill="#FFFFFF" d="M527.281,113H410V82.828c0-40.582,22.949-65.016,58.641-65.016c35.695,0,58.641,24.434,58.641,65.016V113z
	 M543.008,130.207V80.918c0-47.809-30.168-80.742-74.367-80.742c-44.188,0-74.355,32.934-74.355,80.742v49.289H543.008z"/>
<path fill="#FFFFFF" d="M660.312,257.004H543.031v30.168c0,40.582,22.945,65.016,58.637,65.016
	c35.695,0,58.645-24.434,58.645-65.016V257.004z M676.035,239.789v49.293c0,47.805-30.168,80.742-74.367,80.742
	c-44.188,0-74.355-32.938-74.355-80.742v-49.293H676.035z"/>
<path fill="#FFFFFF" d="M527.281,256.828H410v30.168c0,40.578,22.949,65.016,58.641,65.016c35.695,0,58.641-24.438,58.641-65.016
	V256.828z M543.008,239.613v49.293c0,47.805-30.168,80.738-74.367,80.738c-44.188,0-74.355-32.934-74.355-80.738v-49.293H543.008z"
	/>
<path fill="#FFFFFF" d="M1034.531,486.676v-16.723h9.449c5.633,0,12.395,0.867,12.395,8.184c0,8.016-7.191,8.539-13.348,8.539
	H1034.531z M1023.602,522.211h10.93v-26.133h7.973l14.223,26.133h13.176l-16.301-27.258c9.102-1.309,14.219-7.844,14.219-16.727
	c0-13.852-11.094-17.68-22.891-17.68h-21.328V522.211z M944.629,522.211h42.223v-9.93h-31.305v-16.723h28.184v-9.93h-28.184v-15.16
	h29.746v-9.922h-40.664V522.211z M849.609,522.211h10.926v-47.293h0.176l30.34,47.293h13.871v-61.664H894v45.816l-0.172,0.164H894
	l-0.172-0.164l-29.738-45.816h-14.48V522.211z M754.594,522.211h10.922v-47.293h0.176l30.344,47.293h13.867v-61.664H798.98v45.816
	l-0.172,0.164h0.172l-0.172-0.164l-29.738-45.816h-14.477V522.211z M680.645,498.695l9.617-25.086l9.453,25.086H680.645z
	 M659.141,522.211h12.227l5.547-14.109h26.617l5.715,14.109h12.492l-26.445-61.664h-9.449L659.141,522.211z M594.984,522.211H632
	v-9.93h-26.094v-51.734h-10.922V522.211z M526.93,487.285v-17.332h7.805c5.895,0,13.086,1.043,13.086,8.621
	c0,8.359-8.055,8.711-14.301,8.711H526.93z M516.012,522.211h10.918v-25.52h7.805c13.004,0,24.531-2.789,24.531-18.293
	c0-13.672-10.746-17.852-22.625-17.852h-20.629V522.211z M393.336,522.211h37.016v-9.93h-26.094v-51.734h-10.922V522.211z
	 M319.383,498.695l9.625-25.086l9.453,25.086H319.383z M297.887,522.211h12.223l5.543-14.109h26.617l5.727,14.109h12.484
	l-26.445-61.664h-9.449L297.887,522.211z M223.844,512.281v-41.812h9.973c13.355,0,23.062,5.93,23.062,20.91
	c0,14.984-11.184,20.902-24.887,20.902H223.844z M212.926,522.211h22.883c14.738,0,32.512-9.754,32.512-30.832
	c0-20.91-15.086-30.832-31.211-30.832h-24.184V522.211z M162.555,522.211h10.922v-61.664h-10.922V522.211z M93.109,486.676v-16.723
	h9.453c5.633,0,12.398,0.867,12.398,8.184c0,8.016-7.203,8.539-13.359,8.539H93.109z M82.184,522.211h10.926v-26.133h7.973
	l14.223,26.133h13.18l-16.301-27.258c9.102-1.309,14.215-7.844,14.215-16.727c0-13.852-11.094-17.68-22.883-17.68H82.184V522.211z
	 M10.926,495.035h10.488c8.84,0,13.004,2.266,13.004,8.711c0,8.102-7.801,9.062-13.441,9.062H10.926V495.035z M10.926,469.953h9.012
	c8.234,0,11.875,2.609,11.875,7.922c0,4.617-3.641,7.754-10.918,7.754h-9.969V469.953z M0,522.211h22.105
	c11.621,0,23.234-4.18,23.234-17.598c0-7.922-5.547-14.016-13.266-14.891v-0.176c6.332-1.914,10.664-6.527,10.664-13.5
	c0-11.238-9.535-15.5-18.809-15.5H0V522.211z"/>
<path fill="#FFFFFF" d="M732.344,593.555h5.117c7.352,0,13.531,3.625,13.531,11.363c0,8.961-6.07,12.027-14.148,12.027h-4.5V593.555
	z M723.652,624.957h14.199c11.742,0,22.152-6.852,22.152-19.594c0-14.422-10.629-19.82-23.324-19.82h-13.027V624.957z
	 M653.223,624.957h8.691v-28.062h0.113l17.199,28.062h11.359v-39.414h-8.684v27.387h-0.117l-16.758-27.387h-11.805V624.957z
	 M608.074,609.258h-9.629l4.785-12.25L608.074,609.258z M582.855,624.957h9.574l3.281-8.352h15.312l3.398,8.352h9.797
	l-17.145-39.414h-7.184L582.855,624.957z M532.305,624.957h24.773v-8.012h-16.086v-31.402h-8.688V624.957z M490.332,624.957h8.684
	v-39.414h-8.684V624.957z M445.289,609.258h-9.629l4.785-12.25L445.289,609.258z M420.07,624.957h9.574l3.285-8.352h15.312
	l3.395,8.352h9.797l-17.141-39.414h-7.188L420.07,624.957z M356.824,624.957h8.684v-17.035h16.871v17.035h8.688v-39.414h-8.688
	v14.691h-16.871v-14.691h-8.684V624.957z M307.445,624.957h8.684v-31.734h11.246v-7.68h-31.176v7.68h11.246V624.957z"/>
</svg>
